<?xml version="1.0" encoding="utf-8"?>
<!-- Generator: Adobe Illustrator 27.1.1, SVG Export Plug-In . SVG Version: 6.00 Build 0)  -->
<svg version="1.1" id="Слой_1" xmlns="http://www.w3.org/2000/svg" xmlns:xlink="http://www.w3.org/1999/xlink" x="0px" y="0px"
	 viewBox="0 0 800 800" style="enable-background:new 0 0 800 800;" xml:space="preserve">
<style type="text/css">
	
		.st0{clip-path:url(#SVGID_00000029048187347247034090000003194179877868363948_);fill-rule:evenodd;clip-rule:evenodd;fill:#FEF339;}
	.st1{fill-rule:evenodd;clip-rule:evenodd;}
</style>
<g>
	<defs>
		<path id="SVGID_1_" d="M439.9,134.7H120.8c-22,0-39.9,17.9-39.9,39.9v44.9c68.8,17.7,119.7,80.2,119.7,154.5
			S149.7,510.8,80.9,528.5v44.9c0,22,17.9,39.9,39.9,39.9h319.1v-39.9c0-22,17.9-39.9,39.9-39.9s39.9,17.9,39.9,39.9v39.9h159.6
			c22,0,39.9-17.9,39.9-39.9v-44.9c-68.8-17.7-119.7-80.2-119.7-154.5c0-71.6,47.2-132.2,112.1-152.4l7.6-2.2v-44.9
			c0-22-17.9-39.9-39.9-39.9H519.7v39.9c0,22-17.9,39.9-39.9,39.9s-39.9-17.9-39.9-39.9L439.9,134.7L439.9,134.7z"/>
	</defs>
	<clipPath id="SVGID_00000110447075624727987990000006332679208521719705_">
		<use xlink:href="#SVGID_1_"  style="overflow:visible;"/>
	</clipPath>
	
		<rect x="1" y="54.9" style="clip-path:url(#SVGID_00000110447075624727987990000006332679208521719705_);fill-rule:evenodd;clip-rule:evenodd;fill:#FEF339;" width="797.9" height="638.4"/>
</g>
<path class="st1" d="M679.2,54.9c66.1,0,119.7,53.6,119.7,119.7v79.8c0,22-17.9,39.9-39.9,39.9c-44.1,0-79.8,35.7-79.8,79.8
	c0,42.1,32.5,76.5,73.8,79.6l10.6,0.5c19.8,2.3,35.2,19.2,35.2,39.6v79.8c0,66.1-53.6,119.7-119.7,119.7H120.8
	c-66.1,0-119.7-53.6-119.7-119.7v-79.8c0-20.5,15.4-37.3,35.2-39.6l10.6-0.5c41.3-3,73.8-37.5,73.8-79.6c0-44.1-35.7-79.8-79.8-79.8
	c-22,0-39.9-17.9-39.9-39.9v-79.8C1,108.5,54.6,54.9,120.7,54.9L679.2,54.9L679.2,54.9z M439.9,134.7H120.8
	c-22,0-39.9,17.9-39.9,39.9v44.9c68.8,17.7,119.7,80.2,119.7,154.5S149.7,510.8,80.9,528.5v44.9c0,22,17.9,39.9,39.9,39.9h319.1
	v-39.9c0-22,17.9-39.9,39.9-39.9s39.9,17.9,39.9,39.9v39.9h159.6c22,0,39.9-17.9,39.9-39.9v-44.9c-68.8-17.7-119.7-80.2-119.7-154.5
	c0-71.6,47.2-132.2,112.1-152.4l7.6-2.2v-44.9c0-22-17.9-39.9-39.9-39.9H519.7v39.9c0,22-17.9,39.9-39.9,39.9s-39.9-17.9-39.9-39.9
	L439.9,134.7L439.9,134.7z M479.8,294.2c22,0,39.9,17.9,39.9,39.9v79.8c0,22-17.9,39.9-39.9,39.9s-39.9-17.9-39.9-39.9v-79.8
	C439.9,312.1,457.7,294.2,479.8,294.2z"/>
</svg>
